<?xml version="1.0" encoding="utf-8"?>
<!-- Generator: Adobe Illustrator 24.3.0, SVG Export Plug-In . SVG Version: 6.00 Build 0)  -->
<svg version="1.1" id="Layer_1" xmlns="http://www.w3.org/2000/svg" xmlns:xlink="http://www.w3.org/1999/xlink" x="0px" y="0px"
	 viewBox="0 0 1236 332" style="enable-background:new 0 0 1236 332;" xml:space="preserve">
<style type="text/css">
	.st0{fill:none;}
	.st1{fill-rule:evenodd;clip-rule:evenodd;fill:#20214C;}
	.st2{fill:#20214C;}
</style>
<rect class="st0" width="1236" height="332"/>
<g id="carbonfuture-logo-horizontal">
	<g id="logo" transform="translate(94.000000, 94.000000)">
		<g id="logo-1">
			<path id="Combined-Shape" class="st1" d="M140.3,97.2c-11,27.1-37.6,46.2-68.7,46.2S13.9,124.4,2.9,97.2H140.3z"/>
			<path id="Combined-Shape_1_" class="st2" d="M71.7,0c38.1,0,69.3,29.7,71.6,67.3l-29.2,0c-2.2-21.4-20.3-38.1-42.4-38.1
				S31.6,45.8,29.4,67.3l-29.2,0C2.5,29.7,33.6,0,71.7,0z"/>
		</g>
		<path id="Carbonfuture" class="st2" d="M239.9,119.6c23.6,0,40.6-15.3,43.4-37.9h-22.2c-2.3,10.9-9.9,17.6-21.4,17.6
			c-14.1,0-23.9-10.5-23.9-25s9.8-25,23.9-25c11.5,0,19.1,6.7,21.4,17.6h22.2c-2.8-22.6-19.9-37.9-43.4-37.9
			c-26.1,0-45.9,19-45.9,45.3S213.7,119.6,239.9,119.6z M323.8,119.6c6.9,0,12.4-1.9,16.9-5v3.3h20.6V55.7h-20.6v3.2
			c-4.6-3.1-10.1-4.9-16.9-4.9c-16.7,0-30.7,14.1-30.7,32.7C293.1,105.2,307.1,119.6,323.8,119.6z M328,101.9
			c-8.4,0-14.6-6.5-14.6-15.1s6.2-15.1,14.6-15.1c4.5,0,8.8,1.2,12.7,5.5v19.3C336.8,100.7,332.5,101.9,328,101.9z M396.1,117.9
			V82.2c4.8-4.8,11.2-7.4,21.3-7.8V54.6c-9.2,0-15.8,3-21.3,7.7v-6.7h-20.8v62.3H396.1z M465.2,119.6c16.7,0,30.7-14.1,30.7-32.7
			c0-18.5-14-32.6-30.7-32.6c-6.8,0-12.2,1.8-16.8,4.8V26.8h-20.8v91.2h20.8v-3.1C452.9,117.8,458.4,119.6,465.2,119.6z
			 M461.1,102.1c-4.5,0-8.9-1.2-12.7-5.4V77.2c3.8-4.2,8.3-5.4,12.7-5.4c8.4,0,14.5,6.5,14.5,15C475.6,95.6,469.5,102.1,461.1,102.1
			z M538.3,119.6c19.9,0,33.9-13.5,33.9-32.7c0-19.1-14-32.9-33.9-32.9c-19.9,0-34,13.7-34,32.9
			C504.3,106.1,518.4,119.6,538.3,119.6z M538.3,102.3c-8.7,0-14.6-6.3-14.6-15.4c0-9,6-15.4,14.6-15.4c8.5,0,14.5,6.4,14.5,15.4
			C552.8,96,546.8,102.3,538.3,102.3z M604.1,117.9V78.8c3.6-4,7.5-5.9,11.2-5.9c6.9,0,11.3,4,11.3,12.8v32.2h20.6V82.4
			c0-17.7-10.7-28.4-26.2-28.4c-6.6,0-12,2.1-16.9,5.8v-4.1h-20.8v62.3H604.1z M689.7,117.9V73.5h21.8V55.7h-21.8v-3.6
			c0-6.3,4.1-10.3,10.7-10.3c2.7,0,6.4,0.9,9.4,1.9l2.8-17.3c-6.4-1.7-10.7-2.4-15.7-2.4c-15.8,0-27.9,10-27.9,28.1v3.6h-15.2v17.8
			h15.2v44.4H689.7z M744.1,119.6c6.6,0,12-2.2,16.9-6v4.4h20.6V55.7H761v39c-3.6,4-7.5,6.2-11.3,6.2c-6.8,0-11.3-4.2-11.3-13.1
			V55.7h-20.6V91C717.7,108.7,728.4,119.6,744.1,119.6z M845.2,116.5l-2.3-18.6c-3.7,1.4-7,2.6-11,2.6c-6,0-9.7-3-9.7-9.4V73.5h21
			V55.7h-21V34.5h-20.6v21.2h-12.1v17.8h12.1v18.2c0,16.8,10.2,27.9,27,27.9C832.2,119.6,838.9,119.2,845.2,116.5z M881.2,119.6
			c6.6,0,12-2.2,16.9-6v4.4h20.6V55.7h-20.6v39c-3.6,4-7.5,6.2-11.3,6.2c-6.8,0-11.3-4.2-11.3-13.1V55.7h-20.6V91
			C854.8,108.7,865.5,119.6,881.2,119.6z M953.5,117.9V82.2c4.8-4.8,11.2-7.4,21.3-7.8V54.6c-9.2,0-15.8,3-21.3,7.7v-6.7h-20.8v62.3
			H953.5z M1015.9,119.6c14.5,0,26-7.6,29.7-19.8h-20.9c-1.9,2.3-4.6,3.3-9.2,3.3c-8.4,0-12.6-5-14-11.4h44.7
			c3.1-22.1-10.1-37.7-31.8-37.7c-19.1,0-32.2,13.9-32.2,32.7C982.2,105.7,995.7,119.6,1015.9,119.6z M1027.5,79.8h-25.7
			c1.7-6.3,5.9-10.4,13.1-10.4C1021.9,69.4,1026.4,72.6,1027.5,79.8z"/>
	</g>
</g>
</svg>
